# xmcd
#
# Track frame offsets:
#	150
#	22039
#	35777
#	51498
#	72246
#	84100
#	98494
#	111878
#	126900
#	149840
#	161863
#	184990
#
# Disc length: 2708 seconds
#
# Revision: 1
# Processed by: cddbd v1.5.1PL0 Copyright (c) Steve Scherf et al.
# Submitted via: audiograbber 1.82.02
#
DISCID=b20a920c
DTITLE=Dennis Dunn - electric blue lullabye
DYEAR=1999
DGENRE=blues
TTITLE0=terminal aisles
TTITLE1=try to forget
TTITLE2=can't hold on
TTITLE3=crossing the line
TTITLE4=burning alive
TTITLE5=boxcar
TTITLE6=used to you
TTITLE7=red rocket
TTITLE8=grey dog blues
TTITLE9=red rocket - reprise
TTITLE10=big bend goodnight
TTITLE11=to bethlehem
EXTD=
EXTT0=
EXTT1=
EXTT2=
EXTT3=
EXTT4=
EXTT5=
EXTT6=
EXTT7=
EXTT8=
EXTT9=
EXTT10=
EXTT11=
PLAYORDER=
